<svg width="16" height="17" viewBox="0 0 16 17" fill="none" xmlns="http://www.w3.org/2000/svg">
<g id="Vector">
<path d="M8.16118 0.000489938C5.9967 0.000489938 3.92087 0.86439 2.39035 2.40214C1.69066 3.10515 1.13113 3.92266 0.729853 4.81083L3.76693 6.14982C4.53195 4.4547 6.21237 3.24554 8.16118 3.24554C9.32459 3.22742 10.4486 3.66911 11.291 4.47551L13.621 2.13448C12.143 0.74238 10.1869 -0.0221762 8.16118 0.000489938Z" fill="#ED4137"/>
<path d="M3.57868 9.77152C3.23743 8.75311 3.23743 7.65045 3.57868 6.63204C3.63326 6.46752 3.69618 6.30659 3.76693 6.14982L0.729853 4.81083C0.25337 5.86546 0 7.01973 0 8.20024C0 9.36067 0.24482 10.4957 0.705721 11.5357L3.58174 9.77152H3.57868Z" fill="#F9BC04"/>
<path d="M13.57 14.4208H13.568L10.9411 12.3719C10.2086 12.8721 9.26396 13.1549 8.16424 13.1549C6.03519 13.1549 4.22953 11.7118 3.58174 9.77152L0.705721 11.5357C1.10858 12.4447 1.67652 13.2811 2.39035 13.9983C3.92087 15.5361 5.9967 16.4 8.16118 16.4C10.3627 16.4 12.2193 15.6743 13.57 14.4208Z" fill="#34A853"/>
<path d="M16 8.38884C16.0009 7.83023 15.9535 7.27259 15.8582 6.72224L8.16118 6.72326V9.88017H12.5692C12.4791 10.3847 12.288 10.8656 12.0076 11.2939C11.7273 11.7222 11.3634 12.0889 10.938 12.3719H10.9411L13.568 14.4208C15.1125 12.993 16 10.8836 16 8.38884Z" fill="#4484F5"/>
</g>
</svg>
