<svg width="32" height="32" viewBox="0 0 32 32" fill="none" xmlns="http://www.w3.org/2000/svg">
<g id="Icon300x40_chat">
<mask id="mask0_2194_85" style="mask-type:alpha" maskUnits="userSpaceOnUse" x="0" y="0" width="32" height="32">
<rect id="Bounding box" width="32" height="32" fill="#D9D9D9"/>
</mask>
<g mask="url(#mask0_2194_85)">
<path id="chat" d="M8.33325 18.347H18.2204V16.6718H8.33325V18.347ZM8.33325 14.1846H23.6665V12.5094H8.33325V14.1846ZM8.33325 10.0222H23.6665V8.34704H8.33325V10.0222ZM3.33325 28.0512V5.41884C3.33325 4.84577 3.53756 4.35493 3.94619 3.94631C4.35481 3.53769 4.84565 3.33337 5.41872 3.33337H26.5811C27.1541 3.33337 27.645 3.53769 28.0536 3.94631C28.4622 4.35493 28.6665 4.84577 28.6665 5.41884V21.2478C28.6665 21.8209 28.4622 22.3118 28.0536 22.7204C27.645 23.129 27.1541 23.3333 26.5811 23.3333H8.05119L3.33325 28.0512ZM7.32642 21.6581H26.5811C26.6836 21.6581 26.7777 21.6154 26.8631 21.5299C26.9486 21.4444 26.9914 21.3504 26.9914 21.2478V5.41884C26.9914 5.31626 26.9486 5.22224 26.8631 5.13678C26.7777 5.05129 26.6836 5.00854 26.5811 5.00854H5.41872C5.31614 5.00854 5.22212 5.05129 5.13665 5.13678C5.05116 5.22224 5.00842 5.31626 5.00842 5.41884V24.0684L7.32642 21.6581Z" fill="#BEBEBE"/>
</g>
</g>
</svg>
