<svg width="32" height="32" viewBox="0 0 32 32" fill="none" xmlns="http://www.w3.org/2000/svg">
<g id="Icon300x40_favorite">
<mask id="mask0_2194_79" style="mask-type:alpha" maskUnits="userSpaceOnUse" x="0" y="0" width="32" height="32">
<rect id="Bounding box" width="32" height="32" fill="#D9D9D9"/>
</mask>
<g mask="url(#mask0_2194_79)">
<path id="favorite" d="M15.9999 27.0888L14.8034 26.0051C12.5396 23.9378 10.669 22.1593 9.19182 20.6696C7.7146 19.1799 6.54137 17.8565 5.67215 16.6995C4.80293 15.5426 4.19581 14.4944 3.85079 13.5549C3.50576 12.6155 3.33325 11.6698 3.33325 10.7179C3.33325 8.86802 3.95704 7.31922 5.20462 6.07153C6.4522 4.82386 7.99648 4.20003 9.83748 4.20003C11.0529 4.20003 12.1868 4.49933 13.2392 5.09793C14.2916 5.69651 15.2118 6.56303 15.9999 7.69749C16.854 6.52996 17.7972 5.65517 18.8294 5.07313C19.8616 4.49106 20.9726 4.20003 22.1623 4.20003C24.0033 4.20003 25.5476 4.82386 26.7952 6.07153C28.0427 7.31922 28.6665 8.86802 28.6665 10.7179C28.6665 11.6698 28.494 12.6155 28.149 13.5549C27.804 14.4944 27.1972 15.542 26.3286 16.6977C25.46 17.8535 24.2875 19.1768 22.8111 20.6677C21.3346 22.1586 19.4631 23.9378 17.1964 26.0051L15.9999 27.0888ZM15.9999 24.8513C18.1883 22.859 19.9892 21.1515 21.4026 19.7286C22.8159 18.3058 23.9369 17.0637 24.7655 16.0023C25.5941 14.9409 26.1722 13.9977 26.4999 13.1726C26.8275 12.3475 26.9914 11.5303 26.9914 10.7212C26.9914 9.32527 26.5349 8.16864 25.6221 7.25126C24.7093 6.33388 23.5577 5.87519 22.1673 5.87519C21.0587 5.87519 20.0378 6.20098 19.1047 6.85256C18.1716 7.50412 17.3811 8.44956 16.7332 9.68889H15.2529C14.6056 8.45585 13.8162 7.51197 12.8846 6.85726C11.953 6.20255 10.9356 5.87519 9.83249 5.87519C8.45064 5.87519 7.30117 6.33388 6.38409 7.25126C5.46697 8.16864 5.00842 9.32748 5.00842 10.7278C5.00842 11.5361 5.1727 12.3543 5.50125 13.1824C5.82981 14.0106 6.40644 14.9571 7.23115 16.0221C8.05589 17.0872 9.17965 18.3278 10.6025 19.744C12.0253 21.1602 13.8244 22.8627 15.9999 24.8513Z" fill="#BEBEBE"/>
</g>
</g>
</svg>
