<svg width="32" height="32" viewBox="0 0 32 32" fill="none" xmlns="http://www.w3.org/2000/svg">
<g id="Icon300x40_person">
<mask id="mask0_2194_88" style="mask-type:alpha" maskUnits="userSpaceOnUse" x="0" y="0" width="32" height="32">
<rect id="Bounding box" width="32" height="32" fill="#D9D9D9"/>
</mask>
<g mask="url(#mask0_2194_88)">
<path id="person" d="M16 15.576C14.7167 15.576 13.6451 15.1462 12.7854 14.2864C11.9256 13.4267 11.4957 12.3537 11.4957 11.0675C11.4957 9.78137 11.9256 8.70984 12.7854 7.85293C13.6451 6.99604 14.7167 6.5676 16 6.5676C17.2833 6.5676 18.3548 6.99604 19.2146 7.85293C20.0743 8.70984 20.5042 9.78137 20.5042 11.0675C20.5042 12.3537 20.0743 13.4267 19.2146 14.2864C18.3548 15.1462 17.2833 15.576 16 15.576ZM6 25.7435V23.0684C6 22.3732 6.18561 21.7557 6.55683 21.2158C6.92806 20.6759 7.41481 20.261 8.0171 19.971C9.39201 19.3396 10.7371 18.8647 12.0523 18.5462C13.3675 18.2277 14.6833 18.0684 15.9997 18.0684C17.3161 18.0684 18.6297 18.2299 19.9405 18.553C21.2514 18.8761 22.5924 19.3508 23.9636 19.977C24.5817 20.2665 25.0756 20.6804 25.4453 21.2185C25.8151 21.7566 25.9999 22.3732 25.9999 23.0684V25.7435H6ZM7.67517 24.0684H24.3248V23.0684C24.3248 22.747 24.2255 22.442 24.0269 22.1534C23.8283 21.8648 23.5663 21.6359 23.241 21.4666C21.984 20.853 20.7691 20.4124 19.5963 20.1449C18.4235 19.8773 17.2247 19.7436 16 19.7436C14.7752 19.7436 13.5705 19.8773 12.3857 20.1449C11.2009 20.4124 9.98744 20.853 8.74527 21.4666C8.41991 21.6359 8.16022 21.8648 7.9662 22.1534C7.77218 22.442 7.67517 22.747 7.67517 23.0684V24.0684ZM16 13.9009C16.7994 13.9009 17.4708 13.6292 18.0141 13.0859C18.5574 12.5426 18.829 11.8712 18.829 11.0718C18.829 10.2724 18.5574 9.60101 18.0141 9.0577C17.4708 8.51441 16.7994 8.24276 16 8.24276C15.2005 8.24276 14.5292 8.51441 13.9859 9.0577C13.4426 9.60101 13.1709 10.2724 13.1709 11.0718C13.1709 11.8712 13.4426 12.5426 13.9859 13.0859C14.5292 13.6292 15.2005 13.9009 16 13.9009Z" fill="#BEBEBE"/>
</g>
</g>
</svg>
