<svg width="32" height="32" viewBox="0 0 32 32" fill="none" xmlns="http://www.w3.org/2000/svg">
<g id="Icon300x40_add_circle">
<mask id="mask0_2194_82" style="mask-type:alpha" maskUnits="userSpaceOnUse" x="0" y="0" width="32" height="32">
<rect id="Bounding box" width="32" height="32" fill="#D9D9D9"/>
</mask>
<g mask="url(#mask0_2194_82)">
<path id="add_circle" d="M15.2119 22.3333H16.8871V16.9008H22.3332V15.2257H16.8871V9.66671H15.2119V15.2257H9.66659V16.9008H15.2119V22.3333ZM16.008 28.6666C14.2544 28.6666 12.6099 28.3342 11.0747 27.6693C9.53952 27.0044 8.19806 26.0984 7.05035 24.9512C5.90264 23.804 4.9962 22.4626 4.33102 20.9269C3.66584 19.3913 3.33325 17.7461 3.33325 15.9911C3.33325 14.2419 3.6657 12.5977 4.33059 11.0585C4.99547 9.51939 5.90152 8.17967 7.04872 7.03938C8.19592 5.89907 9.53733 4.99632 11.073 4.33114C12.6086 3.66596 14.2538 3.33337 16.0088 3.33337C17.758 3.33337 19.4022 3.66582 20.9414 4.33071C22.4805 4.9956 23.8202 5.89793 24.9605 7.03771C26.1008 8.17751 27.0036 9.51783 27.6688 11.0587C28.3339 12.5995 28.6665 14.2439 28.6665 15.9919C28.6665 17.7455 28.3341 19.39 27.6692 20.9252C27.0043 22.4604 26.102 23.8005 24.9622 24.9454C23.8224 26.0904 22.4821 26.9969 20.9412 27.6648C19.4004 28.3327 17.756 28.6666 16.008 28.6666ZM16.011 26.9915C19.0657 26.9915 21.6594 25.9228 23.7922 23.7855C25.925 21.6482 26.9914 19.0493 26.9914 15.9889C26.9914 12.9342 25.9264 10.3405 23.7964 8.20771C21.6664 6.07493 19.0676 5.00854 15.9999 5.00854C12.9469 5.00854 10.3517 6.07354 8.21442 8.20354C6.07709 10.3335 5.00842 12.9323 5.00842 16C5.00842 19.053 6.07709 21.6482 8.21442 23.7855C10.3517 25.9228 12.9506 26.9915 16.011 26.9915Z" fill="#BEBEBE"/>
</g>
</g>
</svg>
